<?xml version="1.0" encoding="UTF-8"?>
<svg width="256" height="256" viewBox="0 0 256 256" fill="none" xmlns="http://www.w3.org/2000/svg">
  <defs>
    <radialGradient id="bg" cx="50%" cy="40%" r="70%">
      <stop offset="0%" stop-color="#8EE3C1" stop-opacity="0.95"/>
      <stop offset="70%" stop-color="#6CA6FF" stop-opacity="0.95"/>
      <stop offset="100%" stop-color="#6CA6FF" stop-opacity="0.85"/>
    </radialGradient>
    <filter id="soft" x="-50%" y="-50%" width="200%" height="200%">
      <feGaussianBlur stdDeviation="2"/>
    </filter>
  </defs>

  <!-- Soft gradient circle -->
  <circle cx="128" cy="128" r="118" fill="url(#bg)"/>
  <circle cx="128" cy="128" r="118" fill="none" stroke="white" stroke-opacity="0.25" stroke-width="6"/>

  <!-- Peace dove (stylized) -->
  <g transform="translate(0,0)" filter="url(#soft)">
    <path d="M186 106c-14 23-44 39-74 40 5-7 10-15 13-23-18 11-38 16-57 12 14-6 26-16 35-29-18 6-35 4-52-5 17-5 33-14 45-28 10-12 16-24 18-38 12 15 23 26 38 38 14 11 30 20 48 33-6-1-13-1-14 0z" fill="#ffffff" fill-opacity="0.88"/>
  </g>

  <!-- Eye / detail -->
  <circle cx="167" cy="105" r="3" fill="#2f3a3f" fill-opacity="0.8"/>

  <!-- Sparkles -->
  <circle cx="58" cy="74" r="3" fill="#fff" fill-opacity="0.7"/>
  <circle cx="210" cy="70" r="2.5" fill="#fff" fill-opacity="0.7"/>
  <circle cx="52" cy="188" r="2.5" fill="#fff" fill-opacity="0.7"/>
</svg>


